# xmcd CD database file
# Copyright (C) 1993-1996 Ti Kan
#
# Track frame offsets:
# 222
# 11587
# 23232
# 34430
# 45515
# 56232
# 64925
# 76040
# 86472
# 97767
# 110877
# 122177
# 132925
# 141597
# 153237
# 164937
# 176907
# 186432
# 196237
# 205610
# 218285
# 228962
# 242007
# 254800
# 265310
# 275650
# 286675
#
# Disc length: 3974 seconds
#
# Revision: 0
# Processed by: cddbd v1.4b41PL1 Copyright (c) Steve Scherf et al.
# Submitted via: inCDius 1.1b5
#
DISCID=910f841b
DTITLE=Patsy Cline - Crazy Dreams The Four Star Years Disc 2
DYEAR=1900
DGENRE=
TTITLE0=That Wonderful Someone
TTITLE1=In Case Of The Blues
TTITLE2=Hungry For Love
TTITLE3=I Can't Forget
TTITLE4=I Don't Wanta
TTITLE5=Ain't No Wheels On This Ship
TTITLE6=Stop The World
TTITLE7=Walking Dream
TTITLE8=Cry Not For Me
TTITLE9=If I Could See The World
TTITLE10=Just Out Of Reach
TTITLE11=I Can See An Angel
TTITLE12=Come On In
TTITLE13=Let The Teardrops Fall
TTITLE14=Never No More
TTITLE15=If I Could Only Stay Asleep
TTITLE16=I'm Moving Along
TTITLE17=I'm Blue Again
TTITLE18=Love Me, Love Me Honey Do
TTITLE19=Yes I Understand
TTITLE20=Gotta Lot Of Rhythm In My Soul
TTITLE21=Life's Railway To Heaven
TTITLE22=Just A Closer Walk With Thee
TTITLE23=Lovesick Blues
TTITLE24=How Can I Face Tomorrow
TTITLE25=There She Goes
TTITLE26=Crazy Dreams
EXTD=
EXTT0=
EXTT1=
EXTT2=
EXTT3=
EXTT4=
EXTT5=
EXTT6=
EXTT7=
EXTT8=
EXTT9=
EXTT10=
EXTT11=
EXTT12=
EXTT13=
EXTT14=
EXTT15=
EXTT16=
EXTT17=
EXTT18=
EXTT19=
EXTT20=
EXTT21=
EXTT22=
EXTT23=
EXTT24=
EXTT25=
EXTT26=
PLAYORDER=
